<svg width="64" height="64" xmlns="http://www.w3.org/2000/svg" xml:space="preserve" version="1.1">

 <g>
  <title>Layer 1</title>
  <g stroke="null" id="svg_1">
   <path stroke="null" id="svg_2" fill="#00D8FF" clip-rule="evenodd" fill-rule="evenodd" d="m63.88,32.22411c0,-4.94143 -5.29734,-9.62182 -13.4227,-12.52961c1.87668,-9.67038 1.03971,-17.36177 -2.63048,-19.82641c-0.84737,-0.5767 -1.83509,-0.84988 -2.9164,-0.84988l0,3.39344c0.59784,0 1.0813,0.13962 1.48679,0.39459c1.77271,1.18376 2.5369,5.70024 1.93907,11.50976c-0.14556,1.42658 -0.3795,2.93207 -0.66542,4.46792c-2.5525,-0.72847 -5.33893,-1.29303 -8.26572,-1.65726c-1.75712,-2.81066 -3.58181,-5.36636 -5.41691,-7.60033c4.24203,-4.61362 8.22413,-7.13289 10.93259,-7.13289l0,-3.39344l0,0c-3.58181,0 -8.26572,2.98064 -13.00682,8.15275c-4.74109,-5.14175 -9.425,-8.09204 -13.00682,-8.09204l0,3.39344c2.69286,0 6.69056,2.50714 10.93779,7.08433c-1.8247,2.23396 -3.6442,4.77145 -5.37532,7.58818c-2.94239,0.36423 -5.72882,0.92879 -8.28132,1.6694c-0.30152,-1.51764 -0.51986,-2.99278 -0.67581,-4.40722c-0.61343,-5.80951 0.14556,-10.326 1.90268,-11.52797c0.38989,-0.27317 0.89935,-0.39459 1.49719,-0.39459l0,-3.38737l0,0c-1.0917,0 -2.08463,0.27317 -2.94239,0.84988c-3.65979,2.46464 -4.48117,10.14388 -2.58889,19.78391c-8.10977,2.91386 -13.38111,7.58211 -13.38111,12.5114c0,4.94143 5.29734,9.62182 13.4227,12.52961c-1.87668,9.67038 -1.03971,17.36177 2.63048,19.82641c0.84737,0.5767 1.83509,0.84988 2.93199,0.84988c3.58181,0 8.26572,-2.98064 13.00682,-8.15275c4.74109,5.14175 9.425,8.09204 13.00682,8.09204c1.0917,0 2.08463,-0.27317 2.94239,-0.84988c3.65979,-2.46464 4.48117,-10.14388 2.58889,-19.78391c8.07857,-2.90172 13.34992,-7.58818 13.34992,-12.5114l0,0zm-26.00323,0c0,-3.83659 -2.66167,-6.95078 -5.95236,-6.95078c-3.28549,0 -5.95236,3.10812 -5.95236,6.95078s2.66167,6.95078 5.95236,6.95078c3.29069,-0.00607 5.95236,-3.11419 5.95236,-6.95078l0,0zm-18.98517,-33.1634l0,0l0,0l0,0zm28.03587,23.01952c-0.48347,1.96079 -1.0813,3.98228 -1.75712,6.00377c-0.53545,-1.21411 -1.0917,-2.43429 -1.70513,-3.6484c-0.59784,-1.21411 -1.23726,-2.40394 -1.87668,-3.55734c1.85069,0.32174 3.6338,0.71632 5.33893,1.20197l0,0zm-5.96276,16.19622c-1.01372,2.05185 -2.05863,4.00049 -3.13993,5.80951c-1.93907,0.20033 -3.90412,0.30353 -5.88478,0.30353c-1.96506,0 -3.93012,-0.10927 -5.85879,-0.29139c-1.0813,-1.80902 -2.13661,-3.73946 -3.15033,-5.77916c-0.98773,-1.99114 -1.88708,-4.01263 -2.70845,-6.05234c0.80578,-2.0397 1.72073,-4.07334 2.69286,-6.06448c1.01372,-2.05185 2.05863,-4.00049 3.13993,-5.80951c1.93907,-0.20033 3.90412,-0.30353 5.88478,-0.30353c1.96506,0 3.93012,0.10927 5.85879,0.29139c1.0813,1.80902 2.13661,3.73946 3.15033,5.77916c0.98773,1.99114 1.88708,4.01263 2.70845,6.05234c-0.82137,2.03363 -1.71553,4.06727 -2.69286,6.06448l0,0zm4.20564,-1.979c0.70181,2.0397 1.29964,4.07334 1.7987,6.05234c-1.70513,0.48564 -3.50383,0.89844 -5.36492,1.21411c0.63942,-1.17162 1.27365,-2.37358 1.87668,-3.60591c0.59264,-1.21411 1.15408,-2.44643 1.68953,-3.66054l0,0zm-13.20436,16.2205c-1.21127,-1.45693 -2.42253,-3.08384 -3.6182,-4.86251c1.16968,0.06071 2.37055,0.10927 3.58181,0.10927c1.22166,0 2.43293,-0.03035 3.6182,-0.10927c-1.17488,1.77867 -2.38614,3.40558 -3.58181,4.86251l0,0zm-9.68493,-8.95406c-1.85069,-0.32174 -3.6338,-0.71632 -5.33893,-1.20197c0.48347,-1.96079 1.0813,-3.98228 1.75712,-6.00377c0.53545,1.21411 1.0917,2.43429 1.70513,3.6484c0.61343,1.22018 1.23726,2.40394 1.87668,3.55734l0,0zm9.61735,-31.63969c1.21127,1.45693 2.42253,3.08384 3.6182,4.86251c-1.16968,-0.06071 -2.37055,-0.10927 -3.58181,-0.10927c-1.22166,0 -2.43293,0.03035 -3.6182,0.10927c1.17488,-1.77867 2.38614,-3.40558 3.58181,-4.86251l0,0zm-9.63295,8.95406c-0.63942,1.17162 -1.27365,2.37358 -1.87668,3.60591c-0.59784,1.21411 -1.15928,2.43429 -1.69473,3.6484c-0.70181,-2.0397 -1.29964,-4.07334 -1.7987,-6.05234c1.71033,-0.4735 3.50903,-0.88023 5.37012,-1.20197l0,0zm-11.78515,19.03724c-4.61113,-2.29467 -7.58991,-5.30566 -7.58991,-7.69138c0,-2.38573 2.98398,-5.41493 7.58991,-7.69138c1.11769,-0.56456 2.34455,-1.06235 3.60781,-1.53585c0.7434,2.98064 1.72073,6.08269 2.93199,9.25758c-1.19567,3.16276 -2.1626,6.24659 -2.8904,9.21509c-1.28924,-0.4735 -2.51611,-0.9895 -3.64939,-1.55406l0,0zm7.00767,21.72649c-1.77271,-1.18376 -2.5369,-5.70024 -1.93907,-11.50976c0.14556,-1.42658 0.3795,-2.93207 0.66542,-4.46792c2.5525,0.72847 5.33893,1.29303 8.26572,1.65726c1.75712,2.81066 3.58181,5.36636 5.41691,7.60033c-4.24723,4.60755 -8.22933,7.13289 -10.93779,7.13289c-0.58744,-0.01821 -1.0813,-0.15176 -1.47119,-0.4128l0,0zm30.88469,-11.5826c0.61343,5.80951 -0.14556,10.326 -1.90268,11.52797c-0.38989,0.27317 -0.89935,0.39459 -1.49719,0.39459c-2.69286,0 -6.69056,-2.50714 -10.93779,-7.08433c1.8247,-2.23396 3.6442,-4.77145 5.37532,-7.58818c2.94239,-0.36423 5.72882,-0.92879 8.28132,-1.67547c0.30152,1.53585 0.53545,3.01099 0.68101,4.42543l0,0zm5.01142,-10.14388c-1.11769,0.56456 -2.34455,1.06235 -3.60781,1.53585c-0.7434,-2.98064 -1.72073,-6.08269 -2.93199,-9.25758c1.19567,-3.16276 2.1626,-6.24659 2.8904,-9.21509c1.28924,0.4735 2.51091,0.9895 3.65979,1.54799c4.61113,2.29467 7.58991,5.30566 7.58991,7.69138c-0.0104,2.3918 -2.98918,5.41493 -7.60031,7.69745l0,0z" class="st0"/>
  </g>
 </g>
</svg>